<svg version="1.1" viewBox="0 0 48 25" xmlns="http://www.w3.org/2000/svg"><g fill="none" fill-rule="evenodd"><g transform="translate(-146 -253)"><g transform="translate(144 239)"><g fill="#D8D8D8" fill-opacity="0"><circle cx="26" cy="26" r="26"/></g><g transform="translate(2 14)" fill="#333" fill-rule="nonzero"><path id="Shape" d="m42.737 0h-32.532c-2.9054 0.0032895-5.2599 2.3577-5.2632 5.2632v0.86637h-1.7841c-1.7434 0.0020559-3.1558 1.4149-3.1579 3.1579v5.5304c0.0020559 1.743 1.4145 3.1558 3.1579 3.1579h1.7841v0.86637c0.0032895 2.9054 2.3577 5.2599 5.2632 5.2632h32.532c2.9054-0.0032895 5.2599-2.3577 5.2632-5.2632v-13.579c-0.0032895-2.9054-2.3577-5.2599-5.2632-5.2632zm-39.579 15.87c-0.581-8.223e-4 -1.0518-0.47163-1.0526-1.0526v-5.5304c8.2231e-4 -0.581 0.47163-1.0518 1.0526-1.0526h1.7841v7.6357h-1.7841zm42.737 2.9716c-0.0020559 1.7434-1.4145 3.1558-3.1579 3.1579h-32.532c-1.7434-0.0020559-3.1558-1.4145-3.1579-3.1579v-13.579c0.0020559-1.7434 1.4145-3.1558 3.1579-3.1579h32.532c1.7434 0.0020559 3.1558 1.4145 3.1579 3.1579v13.579z"/><path id="a" d="m19.609 11h-1.8433v-1.8433c0-0.58141-0.47122-1.0526-1.0526-1.0526-0.58141 0-1.0526 0.47122-1.0526 1.0526v1.8433h-1.8433c-0.58141 0-1.0526 0.47122-1.0526 1.0526s0.47122 1.0526 1.0526 1.0526h1.8433v1.8433c0 0.58141 0.47122 1.0526 1.0526 1.0526 0.58141 0 1.0526-0.47122 1.0526-1.0526v-1.8433h1.8433c0.58141 0 1.0526-0.47122 1.0526-1.0526s-0.47122-1.0526-1.0526-1.0526z"/><path d="m38.561 8.104c-0.58141 0-1.0526 0.47122-1.0526 1.0526v5.7919c0 0.58141 0.47122 1.0526 1.0526 1.0526 0.58141 0 1.0526-0.47122 1.0526-1.0526v-5.7919c0-0.58141-0.47122-1.0526-1.0526-1.0526z"/></g></g></g></g></svg>